<svg width="44" height="48" viewBox="0 0 44 48" fill="none" xmlns="http://www.w3.org/2000/svg">
<g clip-path="url(#clip0_9_33569)">
<path d="M20.2603 0.720029C19.3603 0.980029 18.8003 1.78003 18.8003 2.78003C18.8003 3.78003 19.2203 4.44003 20.1203 4.82003C22.2603 5.72003 24.1603 2.94003 22.5003 1.32003C21.8003 0.660029 21.1603 0.480029 20.2603 0.720029ZM21.8003 1.90003C22.0203 2.12003 22.2003 2.52003 22.2003 2.80003C22.2003 3.40003 21.5603 4.10003 21.0003 4.10003C20.5003 4.10003 19.6003 3.26003 19.6003 2.80003C19.6003 2.34003 20.5003 1.50003 21.0003 1.50003C21.2203 1.50003 21.5803 1.68003 21.8003 1.90003Z" fill="#0E82FD"/>
<path d="M15.08 5.48002C13.88 6.20002 13.46 8.02002 14.2 9.24002C14.76 10.16 15.5 10.58 16.6 10.58C19.24 10.58 20.3 7.48002 18.3 5.72002C17.72 5.22002 17.42 5.10002 16.64 5.10002C16.08 5.10002 15.46 5.26002 15.08 5.48002ZM18.04 6.76002C18.6 7.46002 18.5 8.44002 17.82 9.12002C17.08 9.86002 16.24 9.88002 15.42 9.18002C14.38 8.32002 14.62 6.72002 15.84 6.20002C16.62 5.88002 17.56 6.12002 18.04 6.76002Z" fill="#0E82FD"/>
<path d="M30.68 10.56C30.62 10.72 30.6 11.54 30.64 12.42L30.7 14L31.5 14.1L32.3 14.2L32.4 23C32.52 32.72 32.46 32.32 33.84 33.64C35.6 35.34 38.4 35.26 40.2 33.46C41.56 32.1 41.6 31.78 41.6 22.38V14.12L42.36 14.06L43.1 14V12.2V10.4L36.94 10.34C31.92 10.3 30.78 10.34 30.68 10.56ZM42.4 12.08V13.08L41.66 13.14L40.9 13.2L40.84 14.64L40.78 16.08L39.84 16.14C39.04 16.2 38.9 16.26 38.84 16.64C38.78 17.06 38.84 17.1 39.78 17.1H40.8V17.9V18.68L39.16 18.74C37.62 18.8 37.5 18.84 37.44 19.24C37.38 19.68 37.42 19.7 39.08 19.7H40.8V20.5V21.3H39.92C39.04 21.3 38.44 21.68 38.7 22.1C38.76 22.2 39.28 22.3 39.82 22.3H40.82L40.76 26.94C40.7 31.42 40.68 31.62 40.24 32.36C39.16 34.08 36.56 34.68 34.86 33.56C34.4 33.28 33.84 32.7 33.62 32.3C33.22 31.56 33.2 31.3 33.2 22.7C33.2 17 33.12 13.74 33 13.48C32.84 13.22 32.58 13.1 32.1 13.1C31.4 13.1 31.4 13.08 31.4 12.24C31.4 11.76 31.46 11.3 31.54 11.24C31.6 11.16 34.08 11.1 37.04 11.1H42.4V12.08Z" fill="#0E82FD"/>
<path d="M35.1402 20.42C34.9002 20.66 34.9802 21.26 35.2602 21.36C35.6802 21.52 36.0402 21.2 35.9602 20.78C35.9002 20.4 35.3802 20.18 35.1402 20.42Z" fill="#0E82FD"/>
<path d="M36.7403 22.42C36.4803 22.68 36.6003 22.9 37.0203 22.9C37.2403 22.9 37.4003 22.8 37.3603 22.66C37.2603 22.38 36.9203 22.24 36.7403 22.42Z" fill="#0E82FD"/>
<path d="M34.6001 27.46C34.6001 31.14 34.6801 31.42 35.8401 32.02C36.6001 32.42 37.8601 32.3 38.4401 31.76C39.2401 31.06 39.4001 30.28 39.4001 27.1V24.1H37.0001H34.6001V27.46Z" fill="#0E82FD"/>
<path d="M11.4401 13.06C9.62013 14.04 9.48013 16.82 11.2001 17.84L11.8001 18.18V21.02V23.84L6.50013 32.62C3.58013 37.44 1.10013 41.76 0.980131 42.2C0.440131 44.16 1.26013 45.9 3.14013 46.84L4.30013 47.4H17.9001C31.3601 47.4 31.5001 47.4 32.4201 46.98C34.2801 46.12 35.0801 44 34.3401 41.84C34.1801 41.36 31.7001 37.14 28.8201 32.44L23.6001 23.92V21.06V18.2L24.1801 17.86C25.4601 17.14 25.8601 15.68 25.1601 14.32C24.3401 12.74 24.1401 12.7 17.7001 12.7C12.7401 12.72 12.0201 12.76 11.4401 13.06ZM23.7601 14.3C24.0001 14.52 24.2401 14.92 24.3201 15.18C24.4601 15.74 23.9601 16.8 23.5001 16.98C23.3201 17.04 20.6801 17.1 17.6201 17.1H12.0601L11.6001 16.6C10.9401 15.9 10.9801 14.98 11.6801 14.36C12.2201 13.9 12.2401 13.9 17.7801 13.9C23.0801 13.9 23.3401 13.92 23.7601 14.3ZM22.4001 21.28V24.26L25.4801 29.24C27.1601 32 28.6601 34.44 28.7801 34.66C29.0201 35.1 29.0001 35.1 27.1001 35.1C25.8401 35.1 25.2201 35.02 25.3001 34.9C25.5201 34.56 25.0001 33.32 24.4601 32.9C22.9401 31.72 20.6001 32.72 20.6001 34.58C20.6001 35.08 20.5401 35.1 19.5201 35.1H18.4601L18.4801 34.28C18.5001 33.58 18.3801 33.36 17.8201 32.86C17.2601 32.36 17.0401 32.28 16.4201 32.38C15.4001 32.54 14.8001 33.28 14.8001 34.42V35.3H10.6001C8.28013 35.3 6.40013 35.22 6.40013 35.12C6.40013 35.02 6.56013 34.76 6.74013 34.52C7.06013 34.16 7.36013 34.1 9.10013 34.06C10.8801 34 11.1001 33.96 11.1601 33.62C11.2801 33.06 10.8601 32.9 9.26013 32.9C8.46013 32.9 7.80013 32.86 7.80013 32.8C7.80013 32.76 7.98013 32.42 8.20013 32.06C8.58013 31.42 8.62013 31.4 10.3401 31.3C11.9601 31.2 12.1001 31.16 12.1601 30.76C12.2401 30.26 11.9201 30.14 10.3401 30.06L9.40013 30L9.90013 29.24C10.4201 28.5 10.4201 28.5 11.7801 28.5C12.7401 28.5 13.1801 28.42 13.2601 28.24C13.4401 27.74 13.1001 27.52 12.0601 27.46L11.0201 27.4L12.0001 25.8L12.9801 24.2L13.0001 21.24V18.3H17.7001H22.4001V21.28ZM24.1001 33.5C24.2801 33.7 24.4401 34.1 24.4601 34.42L24.5001 35L22.9601 35.06L21.4001 35.12V34.56C21.4201 33.18 23.1801 32.48 24.1001 33.5ZM17.4001 33.5C18.2001 34.3 17.7001 35.16 16.5001 35.06C15.7601 35 15.7001 34.94 15.6401 34.38C15.5201 33.24 16.6001 32.7 17.4001 33.5Z" fill="#0E82FD"/>
<path d="M16.0601 26.7C14.5601 27.3 15.1601 29.9 16.8001 29.9C18.4401 29.9 19.0401 27.54 17.5801 26.8C16.9401 26.46 16.7001 26.44 16.0601 26.7ZM17.4001 27.58C17.9601 28.28 17.1801 29.44 16.4601 28.98C15.7401 28.54 16.0001 27.3 16.8001 27.3C17.0001 27.3 17.2601 27.44 17.4001 27.58Z" fill="#0E82FD"/>
</g>
<defs>
<clipPath id="clip0_9_33569">
<rect width="42.8" height="47" fill="white" transform="translate(0.600098 0.5)"/>
</clipPath>
</defs>
</svg>
