<svg width="46" height="46" viewBox="0 0 46 46" fill="none" xmlns="http://www.w3.org/2000/svg">
<path d="M33.2423 1.33867C33.2423 2.83906 33.2154 2.78516 33.9162 2.78516C35.4704 2.78516 37.6087 3.75547 38.9384 5.06719C40.349 6.45977 41.3283 8.61602 41.3283 10.332V10.7812H42.7208H44.1134V10.2512C44.1134 9.54141 43.8888 8.28359 43.6013 7.41211C42.7119 4.67188 40.6814 2.33594 38.0939 1.06016C36.7642 0.404297 35.138 0 33.8622 0H33.2423V1.33867Z" fill="#0E82FD"/>
<path d="M21.4459 5.37266C20.3768 6.4418 19.4963 7.36719 19.4963 7.42109C19.4963 7.475 19.6042 7.56484 19.7389 7.62774C20.2151 7.84336 21.8952 8.83164 22.9104 9.49648C28.337 13.0453 33.0627 18.1395 36.1174 23.7367C36.387 24.2219 36.6206 24.6172 36.6475 24.6172C36.6834 24.6172 37.5999 23.7188 38.7049 22.6137L40.6995 20.6191L40.1334 19.6758C36.7553 14.0605 32.0565 9.07422 26.6928 5.43555C25.3631 4.52813 23.5842 3.41406 23.4764 3.41406C23.4315 3.41406 22.5241 4.29453 21.4459 5.37266Z" fill="#0E82FD"/>
<path d="M33.2604 6.75625L33.2873 8.13086L33.7006 8.18477C34.1678 8.25664 34.7068 8.5082 35.1111 8.84961C35.4615 9.14609 35.9377 10.0895 35.9377 10.4848V10.7812H37.3303H38.7229V10.4219C38.7229 9.81992 38.5432 9.14609 38.1658 8.37344C37.3572 6.67539 35.4346 5.39062 33.7006 5.39062H33.2334L33.2604 6.75625Z" fill="#0E82FD"/>
<path d="M16.8908 9.99063C16.3786 10.6016 16.0911 11.1227 15.8486 11.8594C15.7138 12.2816 15.6868 12.8297 15.6419 15.4531C15.588 18.2293 15.5701 18.5887 15.4173 18.8672C15.3275 19.0379 12.9197 21.5266 10.0716 24.3926C7.00794 27.4652 4.75286 29.8102 4.56419 30.0977C3.79153 31.3016 3.50403 32.182 3.44114 33.5836C3.37825 34.8773 3.55794 35.8117 4.07903 36.8809L4.45638 37.6445L3.65677 38.4262C2.22825 39.8457 1.85091 40.6543 1.90481 42.1367C1.93177 42.9004 1.9677 43.0621 2.26419 43.691C2.68645 44.5805 3.33333 45.2363 4.17786 45.6496L4.80677 45.9551L24.3747 45.982L43.9337 46V44.6523V43.3047L24.779 43.2867C6.10052 43.2598 5.60638 43.2598 5.32786 43.0891C4.79778 42.7656 4.54622 42.0379 4.76185 41.4629C4.80677 41.3371 5.20208 40.8699 5.63333 40.4297L6.42395 39.6211L7.1427 39.9805C8.0681 40.4387 8.72396 40.6094 9.83802 40.6723C10.8443 40.7262 11.9224 40.5645 12.713 40.223C13.9349 39.702 14.0786 39.5762 19.5861 34.0867C24.9138 28.7859 24.9318 28.768 25.4708 28.6063C25.938 28.4625 26.3333 28.4535 28.5255 28.4715C30.574 28.4895 31.1759 28.4625 31.7599 28.3457C32.7392 28.148 33.5029 27.7617 34.1587 27.1418L34.7158 26.6207L34.1677 25.5965C32.3529 22.1645 30.3314 19.4512 27.5013 16.6121C25.1654 14.2852 23.054 12.6141 20.3947 11.0059C19.3794 10.3859 17.5915 9.43359 17.4568 9.43359C17.4029 9.43359 17.1513 9.68516 16.8908 9.99063ZM20.799 23.3594L21.6974 24.2578L19.8556 26.0996L18.0138 27.9414L17.0974 27.025L16.172 26.0996L17.9868 24.2848C18.9931 23.2785 19.8286 22.4609 19.8556 22.4609C19.8826 22.4609 20.3048 22.8652 20.799 23.3594Z" fill="#0E82FD"/>
</svg>
